<svg xmlns="http://www.w3.org/2000/svg" width="34.538" height="34.538" viewBox="0 0 34.538 34.538"><defs><style>.a{fill:#fff;}</style></defs><path class="a" d="M17.269,34.538A17.273,17.273,0,0,1,10.547,1.357,17.273,17.273,0,0,1,23.991,33.181,17.161,17.161,0,0,1,17.269,34.538ZM12.817,13.9V17.28H14.7v9.583h3.991V17.28H21.37l.351-3.377H18.694v-2a.927.927,0,0,1,.285-.746.855.855,0,0,1,.548-.175h2.149V7.7l-2.96-.022a4.228,4.228,0,0,0-2.5.7,3.383,3.383,0,0,0-1.206,1.6A4.772,4.772,0,0,0,14.7,11.71V13.9Z"/></svg>