<svg xmlns="http://www.w3.org/2000/svg" width="34.538" height="34.538" viewBox="0 0 34.538 34.538"><defs><style>.a{fill:#fff;}</style></defs><path class="a" d="M17.269,34.538A17.273,17.273,0,0,1,10.547,1.357,17.273,17.273,0,0,1,23.991,33.181,17.161,17.161,0,0,1,17.269,34.538ZM7.708,14.559v8.6a3.56,3.56,0,0,0,.516,1.864,3.884,3.884,0,0,0,1.371,1.359,3.467,3.467,0,0,0,1.785.484h11.7a3.682,3.682,0,0,0,1.864-.493A3.725,3.725,0,0,0,26.3,25.019a3.619,3.619,0,0,0,.5-1.864V14.537H21.26a5.334,5.334,0,0,1,.855,2.434,4.962,4.962,0,0,1-.373,2.28,4.67,4.67,0,0,1-1.228,1.754,4.811,4.811,0,0,1-1.842,1.031,4.981,4.981,0,0,1-1.425.21,5.077,5.077,0,0,1-.67-.045,4.987,4.987,0,0,1-3.936-3.213,4.847,4.847,0,0,1,.614-4.43Zm9.55-.964a3.694,3.694,0,0,0-1.9.515,3.809,3.809,0,0,0-1.382,1.382,3.774,3.774,0,0,0,0,3.771,3.644,3.644,0,0,0,1.382,1.359,3.843,3.843,0,0,0,1.907.493,3.737,3.737,0,0,0,1.875-.493,3.755,3.755,0,0,0,1.371-5.13,3.844,3.844,0,0,0-1.371-1.382A3.641,3.641,0,0,0,17.258,13.6Zm.011-1.117h0a4.806,4.806,0,0,1,1.184.151,5.067,5.067,0,0,1,2.171,1.184.38.38,0,0,0,.307.131h5.877c0,.034,0,.042,0,.043s0-.213.021-1.38c0-.492-.007-.934-.022-1.315a3.541,3.541,0,0,0-.537-1.8,3.908,3.908,0,0,0-1.36-1.327,3.59,3.59,0,0,0-1.831-.493H12.708V12.41h-.789V7.7h-.5V12.41h-.789V7.784l-.2.044a.874.874,0,0,0-.307.142.581.581,0,0,0-.044.3v4.144H9.309V8.4l-.088.022a3.568,3.568,0,0,0-1.469,2.653,9.8,9.8,0,0,0-.044,1.009c0,.709,0,1.054.015,1.054a.129.129,0,0,0,.007-.045v.833l.11.022h5.811a.313.313,0,0,0,.219-.11,5.168,5.168,0,0,1,2.171-1.2A4.816,4.816,0,0,1,17.269,12.478Zm-.011,7.674a2.658,2.658,0,0,1-1.392-.383,2.871,2.871,0,0,1-1.009-1.02,2.788,2.788,0,0,1,0-2.785,2.8,2.8,0,0,1,1.009-1.009,2.788,2.788,0,0,1,2.785,0,2.8,2.8,0,0,1,1.382,2.412,2.735,2.735,0,0,1-.373,1.4,2.8,2.8,0,0,1-1.009,1.009A2.717,2.717,0,0,1,17.258,20.152Zm7.2-7.609H22.444a.581.581,0,0,1-.427-.165.606.606,0,0,1-.165-.449V9.911a.68.68,0,0,1,.153-.461.555.555,0,0,1,.439-.175c.363-.007.7-.011,1.025-.011s.664,0,1.014.011a.581.581,0,0,1,.427.164.609.609,0,0,1,.165.449v2.04a.569.569,0,0,1-.614.614Z"/></svg>