<svg xmlns="http://www.w3.org/2000/svg" width="63.39" height="57.305" viewBox="0 0 63.39 57.305"><defs><style>.a{fill:#fff;}</style></defs><path class="a" d="M27.091,65.457V37.965H15.308a22.91,22.91,0,0,1,2.5-11.157q2.5-4.552,9.283-6.873V8.152A28.7,28.7,0,0,0,3.437,27.075a29.588,29.588,0,0,0-1.7,11.068V65.457Zm38.025,0V37.965H53.333a22.909,22.909,0,0,1,2.5-11.157q2.5-4.552,9.283-6.873V8.152A28.7,28.7,0,0,0,41.461,27.075a29.588,29.588,0,0,0-1.7,11.068V65.457Z" transform="translate(-1.725 -8.152)"/></svg>