<svg xmlns="http://www.w3.org/2000/svg" width="34.538" height="34.538" viewBox="0 0 34.538 34.538"><defs><style>.a{fill:#fff;}</style></defs><path class="a" d="M17.269,34.538A17.273,17.273,0,0,1,10.547,1.357,17.273,17.273,0,0,1,23.991,33.181,17.163,17.163,0,0,1,17.269,34.538Zm-9.6-11.227h0a10.951,10.951,0,0,0,2.85,1.293,11.287,11.287,0,0,0,3.2.46,11.5,11.5,0,0,0,4.8-1.009,10.722,10.722,0,0,0,3.509-2.632,11.815,11.815,0,0,0,2.149-3.6,11.446,11.446,0,0,0,.724-3.947v-.5a8.283,8.283,0,0,0,1.974-2.061,8.017,8.017,0,0,1-2.28.636,4.061,4.061,0,0,0,1.063-.932,3.832,3.832,0,0,0,.669-1.261,7.7,7.7,0,0,1-2.5.965,3.9,3.9,0,0,0-2.873-1.251,3.81,3.81,0,0,0-1.963.537,3.99,3.99,0,0,0-1.436,1.436,3.857,3.857,0,0,0-.526,1.974,4.572,4.572,0,0,0,.088.9,11.146,11.146,0,0,1-4.539-1.228A11.263,11.263,0,0,1,9,10.2a3.934,3.934,0,0,0-.526,1.974,3.871,3.871,0,0,0,.472,1.875A3.979,3.979,0,0,0,10.23,15.46a3.708,3.708,0,0,1-1.8-.5v.066a4.124,4.124,0,0,0,.428,1.744,3.929,3.929,0,0,0,1.129,1.382,3.826,3.826,0,0,0,1.6.735,4.078,4.078,0,0,1-1.031.131,3.923,3.923,0,0,1-.723-.066,3.815,3.815,0,0,0,1.382,1.941,3.955,3.955,0,0,0,2.28.8,8.244,8.244,0,0,1-2.28,1.228,7.868,7.868,0,0,1-2.61.439C8.284,23.355,7.967,23.34,7.665,23.311Z"/></svg>