<svg xmlns="http://www.w3.org/2000/svg" width="249.97" height="66" viewBox="0 0 249.97 66"><defs><style>.a{fill:#fff;}</style></defs><g transform="translate(-74 -74)"><path class="a" d="M36,57A32.972,32.972,0,0,1,3,24,33.009,33.009,0,0,1,66.407,11.155,33.036,33.036,0,0,1,48.845,54.406,32.793,32.793,0,0,1,36,57ZM36-5A28.992,28.992,0,0,0,15.494,44.506,29,29,0,1,0,47.288-2.721,28.817,28.817,0,0,0,36-5Z" transform="translate(71 83)"/><path class="a" d="M36.729,17.628H29.488L35.114,12,32.666,9.536l-8.092,8.092H21.1V14.155l8.092-8.092L26.727,3.615,21.1,9.241V2H17.628V9.241L12,3.615,9.536,6.063l8.092,8.092v3.473H14.155L6.063,9.536,3.615,12l5.626,5.626H2V21.1H9.241L3.615,26.727l2.448,2.466L14.155,21.1h3.473v3.473L9.536,32.666,12,35.114l5.626-5.626v7.241H21.1V29.488l5.626,5.626,2.466-2.448L21.1,24.574V21.1h3.473l8.092,8.092,2.448-2.466L29.488,21.1h7.241Z" transform="translate(88 88)"/><path class="a" d="M3.942,3.006a2.156,2.156,0,0,1,.171-.864,2.208,2.208,0,0,1,.468-.693A2.21,2.21,0,0,1,6.138.81,2.156,2.156,0,0,1,7,.981a2.319,2.319,0,0,1,.7.468,2.128,2.128,0,0,1,.648,1.557,2.176,2.176,0,0,1-.171.855,2.111,2.111,0,0,1-.477.7,2.319,2.319,0,0,1-.7.468,2.246,2.246,0,0,1-1.719,0A2.189,2.189,0,0,1,3.942,3.006ZM5,3.006A1.35,1.35,0,0,0,5.31,3.9a1.019,1.019,0,0,0,.828.369A1.046,1.046,0,0,0,6.975,3.9a1.326,1.326,0,0,0,.315-.891,1.326,1.326,0,0,0-.315-.891,1.046,1.046,0,0,0-.837-.369,1.019,1.019,0,0,0-.828.369A1.35,1.35,0,0,0,5,3.006ZM7.812,13.032,6.192,8.316H6.156L4.482,13.032ZM7.65,5.148,12.456,18H9.522L8.55,15.138H3.744L2.736,18H-.108L4.752,5.148Zm5.922,0V18h9.09V15.624H16.4V5.148Zm10.674,0V18H34V15.624h-6.93v-3.15H33.3v-2.2H27.072V7.524h6.786V5.148Zm13.59,8.586H35.1a4.245,4.245,0,0,0,.432,2.052,4.046,4.046,0,0,0,1.215,1.422,5.184,5.184,0,0,0,1.764.819,8.12,8.12,0,0,0,2.061.261,7.913,7.913,0,0,0,2.313-.306,4.891,4.891,0,0,0,1.674-.855,3.558,3.558,0,0,0,1.017-1.305,3.927,3.927,0,0,0,.342-1.638,3.151,3.151,0,0,0-.459-1.773A3.834,3.834,0,0,0,44.37,11.3a4.787,4.787,0,0,0-1.269-.6q-.639-.189-1-.261-1.206-.306-1.953-.5a7.244,7.244,0,0,1-1.17-.4,1.285,1.285,0,0,1-.567-.432,1.155,1.155,0,0,1-.144-.612,1.208,1.208,0,0,1,.18-.684,1.563,1.563,0,0,1,.459-.45,1.83,1.83,0,0,1,.621-.252,3.312,3.312,0,0,1,.684-.072,4.82,4.82,0,0,1,.963.09,2.321,2.321,0,0,1,.783.306,1.59,1.59,0,0,1,.549.594,2.272,2.272,0,0,1,.243.954h2.736a3.947,3.947,0,0,0-.423-1.9A3.688,3.688,0,0,0,43.92,5.8a4.826,4.826,0,0,0-1.647-.729,8.176,8.176,0,0,0-1.935-.225,6.585,6.585,0,0,0-1.728.234,4.824,4.824,0,0,0-1.548.72,3.833,3.833,0,0,0-1.107,1.215,3.365,3.365,0,0,0-.423,1.719,3.143,3.143,0,0,0,.333,1.5,3.179,3.179,0,0,0,.873,1.035,4.824,4.824,0,0,0,1.224.675,12.307,12.307,0,0,0,1.4.441q.7.2,1.386.36a8.713,8.713,0,0,1,1.224.378,2.641,2.641,0,0,1,.873.54,1.128,1.128,0,0,1,.333.846,1.242,1.242,0,0,1-.252.8,1.767,1.767,0,0,1-.63.495,2.818,2.818,0,0,1-.81.243,5.63,5.63,0,0,1-.81.063,4.3,4.3,0,0,1-1.08-.135,2.688,2.688,0,0,1-.909-.414,2.045,2.045,0,0,1-.621-.729A2.357,2.357,0,0,1,37.836,13.734ZM58.5,13.14V5.148H55.674V13.14a3.216,3.216,0,0,1-.576,2.115,2.647,2.647,0,0,1-2.088.675,3.255,3.255,0,0,1-1.377-.243,2,2,0,0,1-1.179-1.521,5.825,5.825,0,0,1-.09-1.026V5.148H47.538V13.14a4.915,4.915,0,0,0,1.431,3.888,5.917,5.917,0,0,0,4.041,1.26,5.938,5.938,0,0,0,4.032-1.269A4.871,4.871,0,0,0,58.5,13.14Zm2.43-7.992V18h2.646V9.4h.036L68.958,18h2.826V5.148H69.138V13.77H69.1L63.738,5.148ZM77.094,15.624v-8.1H79.11a4.563,4.563,0,0,1,1.755.3,2.754,2.754,0,0,1,1.143.855,3.5,3.5,0,0,1,.621,1.341,7.494,7.494,0,0,1,.189,1.755,5.266,5.266,0,0,1-.27,1.8,3.3,3.3,0,0,1-.72,1.2,2.615,2.615,0,0,1-1.026.657,3.629,3.629,0,0,1-1.188.2ZM74.268,5.148V18h5.544a6.152,6.152,0,0,0,2.565-.5,5.1,5.1,0,0,0,1.818-1.359,5.7,5.7,0,0,0,1.089-2.052,8.9,8.9,0,0,0,.36-2.592,8.009,8.009,0,0,0-.441-2.79,5.484,5.484,0,0,0-1.224-1.98,5.021,5.021,0,0,0-1.854-1.188,6.618,6.618,0,0,0-2.313-.4ZM4.482,36.032l1.674-4.716h.036l1.62,4.716Zm.27-7.884L-.108,41H2.736l1.008-2.862H8.55L9.522,41h2.934L7.65,28.148ZM16.4,33.962V30.344h3.1a2.169,2.169,0,0,1,1.458.423,1.713,1.713,0,0,1,.486,1.359,1.793,1.793,0,0,1-.486,1.4,2.138,2.138,0,0,1-1.458.432Zm-2.826-5.814V41H16.4V35.978h2.826a2.1,2.1,0,0,1,1.53.468,2.553,2.553,0,0,1,.612,1.476q.108.774.162,1.62A4.983,4.983,0,0,0,21.816,41h2.826a1.891,1.891,0,0,1-.3-.657,5.675,5.675,0,0,1-.144-.819q-.045-.432-.063-.846t-.036-.72a7.724,7.724,0,0,0-.135-.972,3.268,3.268,0,0,0-.315-.891,2.445,2.445,0,0,0-.558-.7,2.18,2.18,0,0,0-.864-.441v-.036a3,3,0,0,0,1.557-1.26,3.864,3.864,0,0,0,.477-1.962A3.606,3.606,0,0,0,24,30.317a3.321,3.321,0,0,0-.756-1.125,3.584,3.584,0,0,0-1.188-.765,4.137,4.137,0,0,0-1.557-.279Zm21.564,4.32h2.736a5.18,5.18,0,0,0-.612-1.98,4.815,4.815,0,0,0-1.233-1.449,5.433,5.433,0,0,0-1.692-.891,6.891,6.891,0,0,0-4.662.216,5.679,5.679,0,0,0-1.989,1.44,6.421,6.421,0,0,0-1.242,2.151,8.03,8.03,0,0,0-.432,2.673,7.762,7.762,0,0,0,.432,2.619,6.255,6.255,0,0,0,1.242,2.115,5.689,5.689,0,0,0,1.989,1.413,6.59,6.59,0,0,0,2.655.513,6.331,6.331,0,0,0,2.178-.36,5.05,5.05,0,0,0,1.728-1.044,5.217,5.217,0,0,0,1.188-1.656,6.534,6.534,0,0,0,.558-2.178H35.244a3.663,3.663,0,0,1-.891,2.088,2.615,2.615,0,0,1-2.025.792,3.3,3.3,0,0,1-1.62-.369,3.091,3.091,0,0,1-1.08-.981,4.257,4.257,0,0,1-.6-1.377,6.542,6.542,0,0,1-.189-1.575,7.033,7.033,0,0,1,.189-1.638,4.338,4.338,0,0,1,.6-1.413,3.059,3.059,0,0,1,1.08-.99,3.3,3.3,0,0,1,1.62-.369,2.938,2.938,0,0,1,1,.171,2.905,2.905,0,0,1,.855.477,2.841,2.841,0,0,1,.63.711A2.308,2.308,0,0,1,35.136,32.468Zm4.77-4.32V41h2.826V35.456h5.2V41H50.76V28.148H47.934V33.08h-5.2V28.148Zm13.338,0V41H56.07V28.148ZM61.4,30.524V41h2.826V30.524h3.852V28.148H57.546v2.376Zm8.154-2.376V41h9.756V38.624h-6.93v-3.15h6.228v-2.2H72.378V30.524h6.786V28.148Zm20.232,4.32H92.52a5.18,5.18,0,0,0-.612-1.98,4.815,4.815,0,0,0-1.233-1.449,5.433,5.433,0,0,0-1.692-.891,6.891,6.891,0,0,0-4.662.216,5.679,5.679,0,0,0-1.989,1.44,6.421,6.421,0,0,0-1.242,2.151,8.03,8.03,0,0,0-.432,2.673,7.762,7.762,0,0,0,.432,2.619,6.255,6.255,0,0,0,1.242,2.115,5.689,5.689,0,0,0,1.989,1.413,6.59,6.59,0,0,0,2.655.513,6.331,6.331,0,0,0,2.178-.36,5.05,5.05,0,0,0,1.728-1.044,5.217,5.217,0,0,0,1.188-1.656,6.534,6.534,0,0,0,.558-2.178H89.892A3.663,3.663,0,0,1,89,38.138a2.615,2.615,0,0,1-2.025.792,3.3,3.3,0,0,1-1.62-.369,3.091,3.091,0,0,1-1.08-.981,4.256,4.256,0,0,1-.6-1.377,6.542,6.542,0,0,1-.189-1.575,7.033,7.033,0,0,1,.189-1.638,4.338,4.338,0,0,1,.6-1.413,3.059,3.059,0,0,1,1.08-.99,3.3,3.3,0,0,1,1.62-.369,2.938,2.938,0,0,1,1,.171,2.906,2.906,0,0,1,.855.477,2.841,2.841,0,0,1,.63.711A2.308,2.308,0,0,1,89.784,32.468ZM97.4,30.524V41h2.826V30.524h3.852V28.148H93.546v2.376ZM116.46,36.14V28.148h-2.826V36.14a3.216,3.216,0,0,1-.576,2.115,2.647,2.647,0,0,1-2.088.675,3.256,3.256,0,0,1-1.377-.243,2,2,0,0,1-1.179-1.521,5.825,5.825,0,0,1-.09-1.026V28.148H105.5V36.14a4.915,4.915,0,0,0,1.431,3.888A7.075,7.075,0,0,0,115,40.019,4.871,4.871,0,0,0,116.46,36.14Zm5.256-2.178V30.344h3.1a2.169,2.169,0,0,1,1.458.423,1.713,1.713,0,0,1,.486,1.359,1.793,1.793,0,0,1-.486,1.4,2.138,2.138,0,0,1-1.458.432Zm-2.826-5.814V41h2.826V35.978h2.826a2.1,2.1,0,0,1,1.53.468,2.553,2.553,0,0,1,.612,1.476q.108.774.162,1.62A4.983,4.983,0,0,0,127.134,41h2.826a1.891,1.891,0,0,1-.3-.657,5.674,5.674,0,0,1-.144-.819q-.045-.432-.063-.846t-.036-.72a7.725,7.725,0,0,0-.135-.972,3.268,3.268,0,0,0-.315-.891,2.445,2.445,0,0,0-.558-.7,2.18,2.18,0,0,0-.864-.441v-.036a3,3,0,0,0,1.557-1.26,3.864,3.864,0,0,0,.477-1.962,3.606,3.606,0,0,0-.261-1.377,3.321,3.321,0,0,0-.756-1.125,3.583,3.583,0,0,0-1.188-.765,4.137,4.137,0,0,0-1.557-.279Zm13,0V41h9.756V38.624h-6.93v-3.15h6.228v-2.2h-6.228V30.524H141.5V28.148Zm25.236,4.32h2.736a5.18,5.18,0,0,0-.612-1.98,4.815,4.815,0,0,0-1.233-1.449,5.433,5.433,0,0,0-1.692-.891,6.891,6.891,0,0,0-4.662.216,5.679,5.679,0,0,0-1.989,1.44,6.421,6.421,0,0,0-1.242,2.151A8.031,8.031,0,0,0,148,34.628a7.762,7.762,0,0,0,.432,2.619,6.255,6.255,0,0,0,1.242,2.115,5.689,5.689,0,0,0,1.989,1.413,6.59,6.59,0,0,0,2.655.513,6.331,6.331,0,0,0,2.178-.36,5.05,5.05,0,0,0,1.728-1.044,5.217,5.217,0,0,0,1.188-1.656,6.534,6.534,0,0,0,.558-2.178H157.23a3.663,3.663,0,0,1-.891,2.088,2.615,2.615,0,0,1-2.025.792,3.3,3.3,0,0,1-1.62-.369,3.091,3.091,0,0,1-1.08-.981,4.256,4.256,0,0,1-.6-1.377,6.542,6.542,0,0,1-.189-1.575,7.032,7.032,0,0,1,.189-1.638,4.338,4.338,0,0,1,.6-1.413,3.059,3.059,0,0,1,1.08-.99,3.3,3.3,0,0,1,1.62-.369,2.938,2.938,0,0,1,1,.171,2.906,2.906,0,0,1,.855.477,2.841,2.841,0,0,1,.63.711A2.307,2.307,0,0,1,157.122,32.468Zm7.038,2.16a7.032,7.032,0,0,1,.189-1.638,4.338,4.338,0,0,1,.6-1.413,3.059,3.059,0,0,1,1.08-.99,3.741,3.741,0,0,1,3.24,0,3.059,3.059,0,0,1,1.08.99,4.338,4.338,0,0,1,.6,1.413,7.032,7.032,0,0,1,.189,1.638,6.542,6.542,0,0,1-.189,1.575,4.256,4.256,0,0,1-.6,1.377,3.091,3.091,0,0,1-1.08.981,3.741,3.741,0,0,1-3.24,0,3.091,3.091,0,0,1-1.08-.981,4.256,4.256,0,0,1-.6-1.377A6.542,6.542,0,0,1,164.16,34.628Zm-2.826,0a7.762,7.762,0,0,0,.432,2.619,6.255,6.255,0,0,0,1.242,2.115A5.689,5.689,0,0,0,165,40.775a7.15,7.15,0,0,0,5.319,0,5.709,5.709,0,0,0,1.98-1.413,6.255,6.255,0,0,0,1.242-2.115,7.762,7.762,0,0,0,.432-2.619,8.03,8.03,0,0,0-.432-2.673A6.421,6.421,0,0,0,172.3,29.8a5.7,5.7,0,0,0-1.98-1.44,7.036,7.036,0,0,0-5.319,0,5.679,5.679,0,0,0-1.989,1.44,6.421,6.421,0,0,0-1.242,2.151A8.031,8.031,0,0,0,161.334,34.628Z" transform="translate(150 85)"/></g></svg>