<svg xmlns="http://www.w3.org/2000/svg" width="34.538" height="34.538" viewBox="0 0 34.538 34.538"><defs><style>.a{fill:#fff;}</style></defs><path class="a" d="M17.269,34.538A17.273,17.273,0,0,1,10.547,1.357,17.273,17.273,0,0,1,23.991,33.181,17.163,17.163,0,0,1,17.269,34.538Zm0-24c-1.65,0-3.2.022-4.594.066a22.5,22.5,0,0,0-2.664.175,2.814,2.814,0,0,0-1.294.658,2.417,2.417,0,0,0-.57.877,5.112,5.112,0,0,0-.241,1.052L7.774,14.44a45.417,45.417,0,0,0,0,5.657c.03.475.062.819.1,1.053a4.105,4.105,0,0,0,.164.679,3,3,0,0,0,.614,1.206,2.574,2.574,0,0,0,1.294.679,13.167,13.167,0,0,0,1.743.165c.773.037,2.061.069,3.936.1.689.013,1.386.02,2.074.02,2.364,0,4.654-.08,6.807-.239a2.539,2.539,0,0,0,1.338-.7,2.159,2.159,0,0,0,.526-.833,4.658,4.658,0,0,0,.285-1.074c.058-.4.117-1.031.175-1.886.015-.267.022-.957.022-2s-.008-1.728-.022-1.995c-.043-.686-.066-1.088-.066-1.162a6.677,6.677,0,0,0-.22-1.25,4,4,0,0,0-.5-1.184,2.184,2.184,0,0,0-.647-.57,2.678,2.678,0,0,0-.844-.329c-.378-.058-1.256-.112-2.687-.165C20.458,10.563,18.913,10.537,17.269,10.537Zm-1.951,9.232h0V14.352l5.153,2.719c-.493.269-1.32.7-2.456,1.272s-2.067,1.074-2.7,1.425Z"/></svg>